<svg width="12" height="10" viewBox="0 0 12 10" fill="none" xmlns="http://www.w3.org/2000/svg">
<path fill-rule="evenodd" clip-rule="evenodd" d="M2.10865 0H10.9358C11.6025 0 12.0293 0.702453 11.7165 1.28511L7.29211 9.52305C6.95035 10.1599 6.02775 10.1587 5.68718 9.52118L4.7195 7.70853L3.94819 9.1452C3.84616 9.33582 3.64601 9.45504 3.428 9.45504C3.21 9.45504 3.00984 9.33582 2.90781 9.1452L0.0677943 3.82659C-0.0282678 3.64609 -0.0218775 3.42901 0.0846402 3.25434C0.191158 3.07967 0.382275 2.97288 0.588453 2.97281H2.18914L1.30619 1.3185C0.985909 0.719967 1.4242 0 2.10865 0ZM5.06328 7.07287L6.97103 3.51997C7.03382 3.40308 7.03008 3.26217 6.96117 3.1487C6.89225 3.03523 6.76826 2.96581 6.63446 2.96581H2.82677C2.68955 2.96621 2.56255 3.03761 2.49196 3.15404C2.42137 3.27046 2.41748 3.41494 2.48171 3.53492L4.37104 7.07287C4.43899 7.19963 4.57214 7.27889 4.71716 7.27889C4.86218 7.27889 4.99533 7.19963 5.06328 7.07287Z" fill="#F71963"/>
</svg>
